<svg width="36" height="32" viewBox="0 0 36 32" fill="none" xmlns="http://www.w3.org/2000/svg">
<path fill-rule="evenodd" clip-rule="evenodd" d="M35.2499 0H0.750022C0.336023 0 0 0.448017 0 1C0 1.55198 0.336023 2 0.750022 2H35.25C35.664 2 36 1.55198 36 1C36 0.448017 35.6639 0 35.2499 0ZM30 15H6C5.5 15 5 15.448 5 16C5 16.552 5.5 17 6 17H30C30.5 17 31 16.552 31 16C31 15.448 30.5 15 30 15ZM0.750022 30H35.2499C35.6639 30 35.9999 30.4479 36 31C36 31.552 35.664 32 35.25 32H0.750022C0.336023 32 0 31.552 0 31C0 30.4479 0.336023 30 0.750022 30Z" fill="#9A8584"/>
</svg>
