<svg width="18" height="22" fill="none" xmlns="http://www.w3.org/2000/svg"><path d="M8.996 1C4.588 1 1 4.597 1 9.017a7.91 7.91 0 00.197 1.773c.12.541.3 1.074.535 1.581.861 2.034 2.756 5.157 6.913 8.503a.567.567 0 00.71 0c4.153-3.346 6.052-6.47 6.913-8.503a7.824 7.824 0 00.59-1.849A8.265 8.265 0 0017 9.017C16.992 4.597 13.404 1 8.996 1zm6.741 9.325c0 .008-.004.017-.004.025l-.038.18v.009c-.104.47-.259.926-.464 1.367-.004.004-.004.012-.008.016-.782 1.858-2.497 4.692-6.227 7.782-3.73-3.09-5.445-5.924-6.227-7.782-.004-.004-.004-.012-.008-.016a7.115 7.115 0 01-.465-1.367v-.009c-.025-.096-.033-.159-.037-.18 0-.008-.004-.017-.004-.03a6.865 6.865 0 01-.126-1.307c0-3.795 3.082-6.885 6.867-6.885 3.784 0 6.867 3.09 6.867 6.885 0 .444-.042.884-.126 1.312z" fill="#9A8584" stroke="#9A8584" stroke-width=".3"/><path d="M9 4C6.245 4 4 6.245 4 9s2.245 5 5 5 5-2.245 5-5-2.245-5-5-5zm0 8.888A3.893 3.893 0 015.112 9 3.895 3.895 0 019 5.112 3.895 3.895 0 0112.888 9 3.893 3.893 0 019 12.888z" fill="#9A8584" stroke="#9A8584" stroke-width=".3"/></svg>