<svg width="20" height="20" fill="none" xmlns="http://www.w3.org/2000/svg"><path d="M16.153 11.73c-.393-.407-.867-.625-1.37-.625-.498 0-.976.213-1.385.62l-1.28 1.271c-.105-.056-.21-.109-.311-.161-.146-.073-.284-.141-.401-.214-1.2-.758-2.289-1.746-3.334-3.024-.506-.637-.846-1.174-1.093-1.718.332-.302.64-.617.94-.92.113-.112.226-.23.34-.342.85-.847.85-1.944 0-2.79L7.153 2.726a17.02 17.02 0 01-.377-.383 19.08 19.08 0 00-.761-.75C5.622 1.206 5.152 1 4.658 1s-.972.206-1.377.593l-.008.008-1.377 1.383a2.944 2.944 0 00-.88 1.875c-.097 1.177.252 2.274.52 2.992.655 1.762 1.635 3.395 3.098 5.145a19.048 19.048 0 006.346 4.948c.932.44 2.175.96 3.565 1.048.085.004.174.008.255.008.935 0 1.721-.335 2.337-1 .004-.008.012-.012.016-.02.21-.254.454-.484.709-.73.174-.165.352-.339.526-.52.401-.416.612-.9.612-1.395 0-.5-.215-.98-.624-1.383l-2.223-2.222zm1.45 4.246c-.004.004-.004 0 0 0-.158.17-.32.322-.495.492-.263.25-.53.512-.781.806-.41.436-.891.641-1.523.641-.06 0-.126 0-.186-.004-1.203-.076-2.321-.544-3.16-.943a17.979 17.979 0 01-5.978-4.662C4.1 10.65 3.175 9.116 2.564 7.472c-.377-1.004-.515-1.787-.454-2.524.04-.472.223-.863.56-1.198l1.38-1.375c.199-.185.41-.286.616-.286.255 0 .462.153.591.282l.012.012c.248.23.482.468.73.722.125.129.255.258.384.391l1.106 1.1c.43.428.43.823 0 1.25-.117.118-.23.235-.348.348-.34.346-.665.669-1.017.983-.008.009-.016.013-.02.02-.349.347-.284.686-.21.916l.011.036c.288.694.693 1.347 1.309 2.125l.004.004c1.118 1.371 2.296 2.44 3.596 3.258.166.105.336.19.498.27.146.073.284.142.401.214.017.008.033.02.05.028a.88.88 0 00.4.101c.336 0 .547-.21.616-.278l1.385-1.38c.138-.136.356-.301.611-.301.252 0 .458.157.584.294l.008.008 2.232 2.222c.417.411.417.834.004 1.262z" fill="#9A8584"/><path d="M17.603 15.976c-.004 0-.004.004 0 0zm0 0c-.158.17-.32.322-.495.492-.263.25-.53.512-.781.806-.41.436-.891.641-1.523.641-.06 0-.126 0-.186-.004-1.203-.076-2.321-.544-3.16-.943a17.979 17.979 0 01-5.978-4.662C4.1 10.65 3.175 9.116 2.564 7.472c-.377-1.004-.515-1.787-.454-2.524.04-.472.223-.863.56-1.198l1.38-1.375c.199-.185.41-.286.616-.286.255 0 .462.153.591.282l.012.012c.248.23.482.468.73.722.125.129.255.258.384.391l1.106 1.1c.43.428.43.823 0 1.25-.117.118-.23.235-.348.348-.34.346-.665.669-1.017.983-.008.009-.016.013-.02.02-.349.347-.284.686-.21.916l.011.036c.288.694.693 1.347 1.309 2.125l.004.004c1.118 1.371 2.296 2.44 3.596 3.258.166.105.336.19.498.27.146.073.284.142.401.214.017.008.033.02.05.028a.88.88 0 00.4.101c.336 0 .547-.21.616-.278l1.385-1.38c.138-.136.356-.301.611-.301.252 0 .458.157.584.294l.008.008 2.232 2.222c.417.411.417.834.004 1.262zm-1.45-4.246c-.393-.407-.867-.625-1.37-.625-.498 0-.976.213-1.385.62l-1.28 1.271c-.105-.056-.21-.109-.311-.161-.146-.073-.284-.141-.401-.214-1.2-.758-2.289-1.746-3.334-3.024-.506-.637-.846-1.174-1.093-1.718.332-.302.64-.617.94-.92.113-.112.226-.23.34-.342.85-.847.85-1.944 0-2.79L7.153 2.726a17.02 17.02 0 01-.377-.383 19.08 19.08 0 00-.761-.75C5.622 1.206 5.152 1 4.658 1s-.972.206-1.377.593l-.008.008-1.377 1.383a2.944 2.944 0 00-.88 1.875c-.097 1.177.252 2.274.52 2.992.655 1.762 1.635 3.395 3.098 5.145a19.048 19.048 0 006.346 4.948c.932.44 2.175.96 3.565 1.048.085.004.174.008.255.008.935 0 1.721-.335 2.337-1 .004-.008.012-.012.016-.02.21-.254.454-.484.709-.73.174-.165.352-.339.526-.52.401-.416.612-.9.612-1.395 0-.5-.215-.98-.624-1.383l-2.223-2.222z" stroke="#9A8584" stroke-width=".4"/></svg>